<svg width="10" height="17" viewBox="0 0 10 17" fill="none" xmlns="http://www.w3.org/2000/svg">
<path d="M6.95276 3.01555H9.05462C9.24799 3.01555 9.40493 2.86767 9.40493 2.68545V0.704855C9.40493 0.52264 9.24799 0.374756 9.05462 0.374756H6.95276C4.82848 0.374756 3.09935 2.00347 3.09935 4.00585V6.31655H0.647185C0.453814 6.31655 0.296875 6.46443 0.296875 6.64665V8.62724C0.296875 8.80946 0.453814 8.95734 0.647185 8.95734H3.09935V15.8894C3.09935 16.0716 3.25629 16.2195 3.44966 16.2195H5.55152C5.74489 16.2195 5.90183 16.0716 5.90183 15.8894V8.95734H8.354C8.50463 8.95734 8.63845 8.86624 8.68679 8.73156L9.38741 6.75096C9.42314 6.65061 9.40493 6.53969 9.33907 6.45321C9.27251 6.36738 9.16742 6.31655 9.05462 6.31655H5.90183V4.00585C5.90183 3.45987 6.37335 3.01555 6.95276 3.01555Z" fill="#E4DFDF"/>
</svg>
