<svg width="20" height="19" viewBox="0 0 20 19" fill="none" xmlns="http://www.w3.org/2000/svg">
<g clip-path="url(#clip0_801_1804)">
<path d="M9.94342 1.59265C12.0146 1.59265 12.273 1.60027 13.0857 1.63839C13.8975 1.67651 14.4502 1.80381 14.9366 1.99286C15.4397 2.18649 15.8635 2.44873 16.2874 2.87181C16.675 3.25288 16.9749 3.71385 17.1663 4.22262C17.3546 4.70821 17.4827 5.26165 17.5208 6.07351C17.5566 6.88614 17.5665 7.14456 17.5665 9.21576C17.5665 11.287 17.5589 11.5454 17.5208 12.358C17.4827 13.1699 17.3546 13.7225 17.1663 14.2089C16.9755 14.7179 16.6755 15.179 16.2874 15.5597C15.9062 15.9472 15.4452 16.2471 14.9366 16.4387C14.451 16.6269 13.8975 16.755 13.0857 16.7931C12.273 16.829 12.0146 16.8389 9.94342 16.8389C7.87222 16.8389 7.6138 16.8312 6.80117 16.7931C5.98931 16.755 5.43664 16.6269 4.95028 16.4387C4.44131 16.2477 3.98026 15.9477 3.59947 15.5597C3.21176 15.1787 2.91181 14.7177 2.72053 14.2089C2.53147 13.7233 2.40417 13.1699 2.36605 12.358C2.33022 11.5454 2.32031 11.287 2.32031 9.21576C2.32031 7.14456 2.32794 6.88614 2.36605 6.07351C2.40417 5.26089 2.53147 4.70898 2.72053 4.22262C2.91128 3.71354 3.2113 3.25245 3.59947 2.87181C3.98037 2.48397 4.44139 2.184 4.95028 1.99286C5.43664 1.80381 5.98855 1.67651 6.80117 1.63839C7.6138 1.60256 7.87222 1.59265 9.94342 1.59265ZM9.94342 5.4042C8.93253 5.4042 7.96305 5.80578 7.24824 6.52058C6.53344 7.23539 6.13187 8.20487 6.13187 9.21576C6.13187 10.2266 6.53344 11.1961 7.24824 11.9109C7.96305 12.6257 8.93253 13.0273 9.94342 13.0273C10.9543 13.0273 11.9238 12.6257 12.6386 11.9109C13.3534 11.1961 13.755 10.2266 13.755 9.21576C13.755 8.20487 13.3534 7.23539 12.6386 6.52058C11.9238 5.80578 10.9543 5.4042 9.94342 5.4042ZM14.8984 5.21363C14.8984 4.96091 14.798 4.71853 14.6193 4.53983C14.4406 4.36113 14.1983 4.26074 13.9455 4.26074C13.6928 4.26074 13.4505 4.36113 13.2718 4.53983C13.0931 4.71853 12.9927 4.96091 12.9927 5.21363C12.9927 5.46635 13.0931 5.70872 13.2718 5.88742C13.4505 6.06612 13.6928 6.16652 13.9455 6.16652C14.1983 6.16652 14.4406 6.06612 14.6193 5.88742C14.798 5.70872 14.8984 5.46635 14.8984 5.21363ZM9.94342 6.92883C10.55 6.92883 11.1316 7.16977 11.5605 7.59865C11.9894 8.02754 12.2304 8.60923 12.2304 9.21576C12.2304 9.82229 11.9894 10.404 11.5605 10.8329C11.1316 11.2617 10.55 11.5027 9.94342 11.5027C9.33689 11.5027 8.7552 11.2617 8.32631 10.8329C7.89743 10.404 7.65649 9.82229 7.65649 9.21576C7.65649 8.60923 7.89743 8.02754 8.32631 7.59865C8.7552 7.16977 9.33689 6.92883 9.94342 6.92883Z" fill="white"/>
</g>
<defs>
<clipPath id="clip0_801_1804">
<rect width="18.2955" height="18.2955" fill="white" transform="translate(0.794922 0.0682373)"/>
</clipPath>
</defs>
</svg>
