<svg width="17" height="16" viewBox="0 0 17 16" fill="none" xmlns="http://www.w3.org/2000/svg">
<path d="M2.46217 4.25197C3.5329 4.25197 4.4009 3.38397 4.4009 2.31324C4.4009 1.24251 3.5329 0.374512 2.46217 0.374512C1.39144 0.374512 0.523438 1.24251 0.523438 2.31324C0.523438 3.38397 1.39144 4.25197 2.46217 4.25197Z" fill="white"/>
<path d="M4.07777 5.54688H0.846559C0.668196 5.54688 0.523438 5.69163 0.523438 5.87V15.5636C0.523438 15.742 0.668196 15.8868 0.846559 15.8868H4.07777C4.25614 15.8868 4.4009 15.742 4.4009 15.5636V5.87C4.4009 5.69163 4.25614 5.54688 4.07777 5.54688Z" fill="white"/>
<path d="M13.7068 5.009C12.3258 4.53595 10.5984 4.95149 9.56243 5.69661C9.52689 5.55766 9.40023 5.45426 9.24965 5.45426H6.01843C5.84007 5.45426 5.69531 5.59902 5.69531 5.77739V15.471C5.69531 15.6494 5.84007 15.7942 6.01843 15.7942H9.24965C9.42801 15.7942 9.57277 15.6494 9.57277 15.471V8.50453C10.0949 8.05475 10.7677 7.91128 11.3183 8.14522C11.8521 8.37076 12.1577 8.92136 12.1577 9.65484V15.471C12.1577 15.6494 12.3025 15.7942 12.4809 15.7942H15.7121C15.8904 15.7942 16.0352 15.6494 16.0352 15.471V9.00408C15.9984 6.34866 14.7492 5.36573 13.7068 5.009Z" fill="white"/>
</svg>
