<svg width="17" height="15" viewBox="0 0 17 15" fill="none" xmlns="http://www.w3.org/2000/svg">
<path d="M16.6063 2.64135C16.5002 2.52141 16.3291 2.49124 16.1887 2.56522C16.1014 2.61119 15.9373 2.67152 15.7425 2.73113C15.9883 2.395 16.1859 2.01864 16.2732 1.68035C16.3109 1.53455 16.2558 1.38085 16.1357 1.29394C16.0156 1.20775 15.8556 1.20775 15.7355 1.29394C15.5463 1.42969 14.6329 1.83764 14.0555 1.9698C12.7504 0.794045 11.2316 0.671945 9.65277 1.62002C8.36932 2.39069 8.09 3.95788 8.14447 4.91314C5.20678 4.62225 3.38076 3.02633 2.35288 1.70549C2.28096 1.61284 2.16504 1.564 2.05611 1.57118C1.94159 1.5798 1.83824 1.64516 1.77959 1.74643C1.29358 2.59036 1.15881 3.52335 1.39134 4.44485C1.51843 4.94761 1.74048 5.39077 1.99815 5.74989C1.87455 5.6874 1.75515 5.60911 1.64272 5.51574C1.53938 5.42812 1.39483 5.4116 1.27263 5.46977C1.15113 5.52939 1.07362 5.6558 1.07362 5.79442C1.07362 7.3767 2.03586 8.4325 2.93455 8.98411C2.78931 8.96616 2.63778 8.93312 2.48486 8.88499C2.35358 8.84405 2.21113 8.88499 2.12035 8.99129C2.02957 9.09687 2.00793 9.2477 2.06449 9.37627C2.56935 10.5247 3.526 11.3148 4.7096 11.6014C3.67613 12.2255 2.29283 12.5315 1.02614 12.3814C0.862038 12.3577 0.705622 12.4647 0.653948 12.627C0.602275 12.7893 0.670009 12.9675 0.814554 13.0508C2.73624 14.1605 4.47358 14.5569 5.97489 14.5569C8.15983 14.5569 9.84619 13.718 10.8727 13.0163C13.64 11.1273 15.3647 7.73581 15.1245 4.70126C15.568 4.36441 16.2313 3.74241 16.6426 3.07373C16.7278 2.9387 16.7124 2.76058 16.6063 2.64135Z" fill="white"/>
</svg>
