<svg width="42" height="42" viewBox="0 0 42 42" fill="none" xmlns="http://www.w3.org/2000/svg">
<circle cx="21" cy="21" r="21" fill="url(#paint0_linear_754_1531)"/>
<path d="M31.1123 15.207H11.6123C11.1981 15.207 10.8623 15.5312 10.8623 15.9312V26.0691C10.8623 26.469 11.1981 26.7932 11.6123 26.7932H31.1123C31.5265 26.7932 31.8623 26.469 31.8623 26.0691V15.9312C31.8623 15.5312 31.5265 15.207 31.1123 15.207Z" stroke="#1C1F35" stroke-width="1.5" stroke-linecap="round" stroke-linejoin="round"/>
<path d="M21.3616 23.8966C22.7614 23.8966 23.8961 22.7619 23.8961 21.3621C23.8961 19.9624 22.7614 18.8276 21.3616 18.8276C19.9619 18.8276 18.8271 19.9624 18.8271 21.3621C18.8271 22.7619 19.9619 23.8966 21.3616 23.8966Z" stroke="#1C1F35" stroke-width="1.5" stroke-linecap="round" stroke-linejoin="round"/>
<path d="M26.0693 15.207L31.8624 20.276" stroke="#1C1F35" stroke-width="1.5" stroke-linecap="round" stroke-linejoin="round"/>
<path d="M26.0693 26.7931L31.8624 21.7241" stroke="#1C1F35" stroke-width="1.5" stroke-linecap="round" stroke-linejoin="round"/>
<path d="M16.6554 15.207L10.8623 20.276" stroke="#1C1F35" stroke-width="1.5" stroke-linecap="round" stroke-linejoin="round"/>
<path d="M16.6554 26.7931L10.8623 21.7241" stroke="#1C1F35" stroke-width="1.5" stroke-linecap="round" stroke-linejoin="round"/>
<defs>
<linearGradient id="paint0_linear_754_1531" x1="-1.19072" y1="9.09999" x2="51.6456" y2="12.8521" gradientUnits="userSpaceOnUse">
<stop stop-color="#2DA7FF"/>
<stop offset="0.507189" stop-color="#48B2FF"/>
<stop offset="1" stop-color="#577ABA"/>
</linearGradient>
</defs>
</svg>
