<svg width="84" height="116" viewBox="0 0 84 116" fill="none" xmlns="http://www.w3.org/2000/svg">
<path d="M33.6602 7.16494V1" stroke="white" stroke-width="2" stroke-linecap="round" stroke-linejoin="round"/>
<path d="M58.3195 35.9342C54.5692 49.0347 37.2046 53.6071 34.1221 54.3263C33.8187 54.4035 33.5008 54.4035 33.1974 54.3263C30.1149 53.6071 12.7503 49.0347 9 35.9342V27.1492C8.99996 26.7165 9.13652 26.2948 9.39021 25.9443C9.64389 25.5937 10.0018 25.3322 10.4128 25.197L33.0176 17.6449C33.436 17.5161 33.8835 17.5161 34.3019 17.6449L56.9067 25.197C57.3178 25.3322 57.6756 25.5937 57.9293 25.9443C58.183 26.2948 58.3195 26.7165 58.3195 27.1492V35.9342Z" stroke="white" stroke-width="2" stroke-linecap="round" stroke-linejoin="round"/>
<path d="M34.1271 47.6652C31.6883 47.1036 17.9496 43.5341 14.9824 33.3066" stroke="white" stroke-width="2" stroke-linecap="round" stroke-linejoin="round"/>
<path d="M14.9824 9.98291V23.1362L33.5288 16.5553L52.0752 23.1362V9.98291C52.0752 8.32606 50.7321 6.98291 49.0752 6.98291H17.9824C16.3256 6.98291 14.9824 8.32606 14.9824 9.98291Z" fill="#729AE7" stroke="white" stroke-width="2"/>
<path d="M33.6602 37.99V17.543" stroke="white" stroke-width="2" stroke-linecap="round" stroke-linejoin="round"/>
<path d="M38.9141 36.8963L38.9141 28.5205" stroke="white" stroke-width="2" stroke-linecap="round" stroke-linejoin="round"/>
<path d="M19.7686 17.7518V11.769" stroke="white" stroke-width="2" stroke-linecap="round" stroke-linejoin="round"/>
<path d="M56.8613 20.1449V9.37598" stroke="white" stroke-width="2" stroke-linecap="round" stroke-linejoin="round"/>
</svg>
